<svg xmlns="http://www.w3.org/2000/svg" xmlns:xlink="http://www.w3.org/1999/xlink" version="1.1" x="0px" y="0px" viewBox="0 0 100 125" style="enable-background:new 0 0 100 100;" xml:space="preserve"><g><path d="M11,41.74v18.51c0,3.44,2.8,6.24,6.24,6.24h10c0.6,0,1.16,0.23,1.59,0.66l14.51,14.51c1.18,1.18,2.75,1.83,4.42,1.83   c3.44,0,6.24-2.8,6.24-6.24V24.74c0-3.44-2.8-6.24-6.24-6.24c-1.67,0-3.24,0.65-4.42,1.83L28.83,34.84   c-0.42,0.42-0.99,0.66-1.58,0.66h-10C13.8,35.5,11,38.3,11,41.74z M15,41.74c0-1.24,1.01-2.24,2.24-2.24h10   c1.67,0,3.24-0.65,4.41-1.83l14.52-14.51l0,0c0.42-0.42,0.99-0.66,1.58-0.66c1.24,0,2.24,1.01,2.24,2.24v52.51   c0,1.24-1.01,2.24-2.24,2.24c-0.6,0-1.16-0.23-1.59-0.66L31.66,64.33c-1.18-1.18-2.75-1.83-4.42-1.83h-10   c-1.24,0-2.24-1.01-2.24-2.24V41.74z"/><path d="M61.45,66.36C60.6,66.61,60,67.38,60,68.27c0,1.32,1.27,2.29,2.55,1.92C70.88,67.78,77,60.1,77,51s-6.12-16.78-14.45-19.19   C61.27,31.44,60,32.4,60,33.73c0,0.89,0.6,1.66,1.45,1.91C68.11,37.57,73,43.72,73,51C73,58.28,68.11,64.43,61.45,66.36z"/><path d="M62.3,83.57C77.98,81.02,90,67.39,90,51c0-16.39-12.02-30.02-27.7-32.57c-1.21-0.2-2.3,0.75-2.3,1.98v0.01   c0,0.97,0.69,1.8,1.65,1.96C75.44,24.61,86,36.59,86,51S75.44,77.39,61.65,79.63C60.69,79.78,60,80.62,60,81.58v0.01   C60,82.81,61.09,83.76,62.3,83.57z"/></g><text x="0" y="115" fill="#000000" font-size="5px" font-weight="bold" font-family="'Helvetica Neue', Helvetica, Arial-Unicode, Arial, Sans-serif">Created by Acharyas</text><text x="0" y="120" fill="#000000" font-size="5px" font-weight="bold" font-family="'Helvetica Neue', Helvetica, Arial-Unicode, Arial, Sans-serif">from the Noun Project</text></svg>